<?xml version="1.0" encoding="UTF-8" standalone="no"?>
<!DOCTYPE svg PUBLIC "-//W3C//DTD SVG 1.1//EN"
 "http://www.w3.org/Graphics/SVG/1.1/DTD/svg11.dtd">
<!-- Generated by graphviz version 2.43.0 (0)
 -->
<!-- Title: CostSensitiveSearchTree Pages: 1 -->
<svg width="501pt" height="449pt"
 viewBox="0.00 0.00 501.44 448.74" xmlns="http://www.w3.org/2000/svg" xmlns:xlink="http://www.w3.org/1999/xlink">
<g id="graph0" class="graph" transform="scale(1 1) rotate(0) translate(4 444.74)">
<title>CostSensitiveSearchTree</title>
<polygon fill="white" stroke="transparent" points="-4,4 -4,-444.74 497.44,-444.74 497.44,4 -4,4"/>
<text text-anchor="middle" x="246.72" y="-423.94" font-family="Arial" font-size="16.00">Search Tree with Cost Contours</text>
<text text-anchor="middle" x="246.72" y="-405.94" font-family="Arial" font-size="16.00">(Darker shades = higher cost)</text>
<!-- s -->
<g id="node1" class="node">
<title>s</title>
<ellipse fill="#e8f5e9" stroke="#2d6a4f" stroke-width="3" cx="26.87" cy="-254.87" rx="26.74" ry="26.74"/>
<text text-anchor="middle" x="26.87" y="-258.67" font-family="Arial" font-size="14.00">s</text>
<text text-anchor="middle" x="26.87" y="-243.67" font-family="Arial" font-size="14.00">0</text>
</g>
<!-- sp -->
<g id="node2" class="node">
<title>sp</title>
<ellipse fill="#c8e6c9" stroke="#40916c" stroke-width="2" cx="195.35" cy="-360.87" rx="26.74" ry="26.74"/>
<text text-anchor="middle" x="195.35" y="-364.67" font-family="Arial" font-size="14.00">p</text>
<text text-anchor="middle" x="195.35" y="-349.67" font-family="Arial" font-size="14.00">1</text>
</g>
<!-- s&#45;&gt;sp -->
<g id="edge1" class="edge">
<title>s&#45;&gt;sp</title>
<path fill="none" stroke="#1a1a1a" stroke-width="2" d="M49.98,-268.95C79.08,-287.48 130.41,-320.16 163.37,-341.15"/>
<polygon fill="#1a1a1a" stroke="#1a1a1a" stroke-width="2" points="161.84,-344.32 172.15,-346.74 165.6,-338.41 161.84,-344.32"/>
<text text-anchor="middle" x="75.24" y="-288.07" font-family="Arial" font-size="11.00">1</text>
</g>
<!-- sd -->
<g id="node3" class="node">
<title>sd</title>
<ellipse fill="#a5d6a7" stroke="#52b788" stroke-width="2" cx="123.61" cy="-254.87" rx="26.74" ry="26.74"/>
<text text-anchor="middle" x="123.61" y="-258.67" font-family="Arial" font-size="14.00">d</text>
<text text-anchor="middle" x="123.61" y="-243.67" font-family="Arial" font-size="14.00">3</text>
</g>
<!-- s&#45;&gt;sd -->
<g id="edge2" class="edge">
<title>s&#45;&gt;sd</title>
<path fill="none" stroke="#1a1a1a" stroke-width="2" d="M53.76,-254.87C63.81,-254.87 75.49,-254.87 86.35,-254.87"/>
<polygon fill="#1a1a1a" stroke="#1a1a1a" stroke-width="2" points="86.42,-258.37 96.42,-254.87 86.42,-251.37 86.42,-258.37"/>
<text text-anchor="middle" x="75.24" y="-258.07" font-family="Arial" font-size="11.00">3</text>
</g>
<!-- se -->
<g id="node6" class="node">
<title>se</title>
<ellipse fill="#4caf50" stroke="#a5d6a7" stroke-width="2" cx="123.61" cy="-170.87" rx="26.74" ry="26.74"/>
<text text-anchor="middle" x="123.61" y="-174.67" font-family="Arial" font-size="14.00">e</text>
<text text-anchor="middle" x="123.61" y="-159.67" font-family="Arial" font-size="14.00">9</text>
</g>
<!-- s&#45;&gt;se -->
<g id="edge3" class="edge">
<title>s&#45;&gt;se</title>
<path fill="none" stroke="#1a1a1a" stroke-width="2" d="M47.5,-237.47C61.35,-225.19 80.07,-208.58 95.37,-195.03"/>
<polygon fill="#1a1a1a" stroke="#1a1a1a" stroke-width="2" points="97.84,-197.51 103.01,-188.25 93.2,-192.27 97.84,-197.51"/>
<text text-anchor="middle" x="75.24" y="-218.07" font-family="Arial" font-size="11.00">9</text>
</g>
<!-- spq -->
<g id="node12" class="node">
<title>spq</title>
<ellipse fill="#1b5e20" stroke="#081c15" stroke-width="2" cx="466.57" cy="-369.87" rx="26.74" ry="26.74"/>
<text text-anchor="middle" x="466.57" y="-373.67" font-family="Arial" font-size="14.00" fill="#ffffff">q</text>
<text text-anchor="middle" x="466.57" y="-358.67" font-family="Arial" font-size="14.00" fill="#ffffff">16</text>
</g>
<!-- sp&#45;&gt;spq -->
<g id="edge4" class="edge">
<title>sp&#45;&gt;spq</title>
<path fill="none" stroke="#1a1a1a" stroke-width="2" d="M222.65,-361.75C271.03,-363.37 374.19,-366.82 429.22,-368.65"/>
<polygon fill="#1a1a1a" stroke="#1a1a1a" stroke-width="2" points="429.44,-372.16 439.56,-369 429.68,-365.17 429.44,-372.16"/>
<text text-anchor="middle" x="318.46" y="-368.07" font-family="Arial" font-size="11.00">15</text>
</g>
<!-- sdb -->
<g id="node4" class="node">
<title>sdb</title>
<ellipse fill="#81c784" stroke="#66bb6a" stroke-width="2" cx="267.09" cy="-314.87" rx="26.74" ry="26.74"/>
<text text-anchor="middle" x="267.09" y="-318.67" font-family="Arial" font-size="14.00">b</text>
<text text-anchor="middle" x="267.09" y="-303.67" font-family="Arial" font-size="14.00">4</text>
</g>
<!-- sd&#45;&gt;sdb -->
<g id="edge5" class="edge">
<title>sd&#45;&gt;sdb</title>
<path fill="none" stroke="#1a1a1a" stroke-width="2" d="M148.61,-265.05C171.68,-274.83 206.75,-289.71 232.57,-300.66"/>
<polygon fill="#1a1a1a" stroke="#1a1a1a" stroke-width="2" points="231.4,-303.96 241.97,-304.64 234.13,-297.52 231.4,-303.96"/>
<text text-anchor="middle" x="195.35" y="-298.07" font-family="Arial" font-size="11.00">1</text>
</g>
<!-- sdc -->
<g id="node7" class="node">
<title>sdc</title>
<ellipse fill="#43a047" stroke="#c8e6c9" stroke-width="2" cx="267.09" cy="-242.87" rx="26.74" ry="26.74"/>
<text text-anchor="middle" x="267.09" y="-246.67" font-family="Arial" font-size="14.00">c</text>
<text text-anchor="middle" x="267.09" y="-231.67" font-family="Arial" font-size="14.00">11</text>
</g>
<!-- sd&#45;&gt;sdc -->
<g id="edge6" class="edge">
<title>sd&#45;&gt;sdc</title>
<path fill="none" stroke="#1a1a1a" stroke-width="2" d="M150.56,-252.67C172.9,-250.77 205.35,-248.02 230.18,-245.92"/>
<polygon fill="#1a1a1a" stroke="#1a1a1a" stroke-width="2" points="230.64,-249.39 240.31,-245.06 230.05,-242.41 230.64,-249.39"/>
<text text-anchor="middle" x="195.35" y="-254.07" font-family="Arial" font-size="11.00">8</text>
</g>
<!-- sdba -->
<g id="node5" class="node">
<title>sdba</title>
<ellipse fill="#66bb6a" stroke="#81c784" stroke-width="2" cx="369.83" cy="-314.87" rx="26.74" ry="26.74"/>
<text text-anchor="middle" x="369.83" y="-318.67" font-family="Arial" font-size="14.00">a</text>
<text text-anchor="middle" x="369.83" y="-303.67" font-family="Arial" font-size="14.00">6</text>
</g>
<!-- sdb&#45;&gt;sdba -->
<g id="edge7" class="edge">
<title>sdb&#45;&gt;sdba</title>
<path fill="none" stroke="#1a1a1a" stroke-width="2" d="M294.03,-314.87C305.69,-314.87 319.66,-314.87 332.35,-314.87"/>
<polygon fill="#1a1a1a" stroke="#1a1a1a" stroke-width="2" points="332.63,-318.37 342.63,-314.87 332.63,-311.37 332.63,-318.37"/>
<text text-anchor="middle" x="318.46" y="-318.07" font-family="Arial" font-size="11.00">2</text>
</g>
<!-- ser -->
<g id="node8" class="node">
<title>ser</title>
<ellipse fill="#43a047" stroke="#c8e6c9" stroke-width="2" cx="267.09" cy="-170.87" rx="26.74" ry="26.74"/>
<text text-anchor="middle" x="267.09" y="-174.67" font-family="Arial" font-size="14.00">r</text>
<text text-anchor="middle" x="267.09" y="-159.67" font-family="Arial" font-size="14.00">11</text>
</g>
<!-- se&#45;&gt;ser -->
<g id="edge9" class="edge">
<title>se&#45;&gt;ser</title>
<path fill="none" stroke="#1a1a1a" stroke-width="2" d="M150.56,-170.87C172.76,-170.87 204.95,-170.87 229.72,-170.87"/>
<polygon fill="#1a1a1a" stroke="#1a1a1a" stroke-width="2" points="229.83,-174.37 239.83,-170.87 229.83,-167.37 229.83,-174.37"/>
<text text-anchor="middle" x="195.35" y="-174.07" font-family="Arial" font-size="11.00">2</text>
</g>
<!-- seh -->
<g id="node14" class="node">
<title>seh</title>
<ellipse fill="#0d2818" stroke="#000000" stroke-width="2" cx="267.09" cy="-98.87" rx="26.74" ry="26.74"/>
<text text-anchor="middle" x="267.09" y="-102.67" font-family="Arial" font-size="14.00" fill="#ffffff">h</text>
<text text-anchor="middle" x="267.09" y="-87.67" font-family="Arial" font-size="14.00" fill="#ffffff">17</text>
</g>
<!-- se&#45;&gt;seh -->
<g id="edge10" class="edge">
<title>se&#45;&gt;seh</title>
<path fill="none" stroke="#1a1a1a" stroke-width="2" d="M147.97,-158.98C171.32,-147.1 207.41,-128.73 233.55,-115.43"/>
<polygon fill="#1a1a1a" stroke="#1a1a1a" stroke-width="2" points="235.37,-118.43 242.69,-110.78 232.19,-112.19 235.37,-118.43"/>
<text text-anchor="middle" x="195.35" y="-150.07" font-family="Arial" font-size="11.00">8</text>
</g>
<!-- sdc_a -->
<g id="node9" class="node">
<title>sdc_a</title>
<ellipse fill="#388e3c" stroke="#e8f5e9" stroke-width="2" cx="369.83" cy="-242.87" rx="26.74" ry="26.74"/>
<text text-anchor="middle" x="369.83" y="-246.67" font-family="Arial" font-size="14.00">a</text>
<text text-anchor="middle" x="369.83" y="-231.67" font-family="Arial" font-size="14.00">13</text>
</g>
<!-- sdc&#45;&gt;sdc_a -->
<g id="edge8" class="edge">
<title>sdc&#45;&gt;sdc_a</title>
<path fill="none" stroke="#1a1a1a" stroke-width="2" d="M294.03,-242.87C305.69,-242.87 319.66,-242.87 332.35,-242.87"/>
<polygon fill="#1a1a1a" stroke="#1a1a1a" stroke-width="2" points="332.63,-246.37 342.63,-242.87 332.63,-239.37 332.63,-246.37"/>
<text text-anchor="middle" x="318.46" y="-246.07" font-family="Arial" font-size="11.00">2</text>
</g>
<!-- serf -->
<g id="node10" class="node">
<title>serf</title>
<ellipse fill="#388e3c" stroke="#e8f5e9" stroke-width="2" cx="369.83" cy="-170.87" rx="26.74" ry="26.74"/>
<text text-anchor="middle" x="369.83" y="-174.67" font-family="Arial" font-size="14.00">f</text>
<text text-anchor="middle" x="369.83" y="-159.67" font-family="Arial" font-size="14.00">13</text>
</g>
<!-- ser&#45;&gt;serf -->
<g id="edge11" class="edge">
<title>ser&#45;&gt;serf</title>
<path fill="none" stroke="#1a1a1a" stroke-width="2" d="M294.03,-170.87C305.69,-170.87 319.66,-170.87 332.35,-170.87"/>
<polygon fill="#1a1a1a" stroke="#1a1a1a" stroke-width="2" points="332.63,-174.37 342.63,-170.87 332.63,-167.37 332.63,-174.37"/>
<text text-anchor="middle" x="318.46" y="-174.07" font-family="Arial" font-size="11.00">2</text>
</g>
<!-- serfG -->
<g id="node11" class="node">
<title>serfG</title>
<ellipse fill="#2d6a4f" stroke="#004b23" stroke-width="3" cx="466.57" cy="-206.87" rx="26.74" ry="26.74"/>
<text text-anchor="middle" x="466.57" y="-210.67" font-family="Arial" font-size="14.00" fill="#ffffff">G</text>
<text text-anchor="middle" x="466.57" y="-195.67" font-family="Arial" font-size="14.00" fill="#ffffff">15</text>
</g>
<!-- serf&#45;&gt;serfG -->
<g id="edge12" class="edge">
<title>serf&#45;&gt;serfG</title>
<path fill="none" stroke="#d32f2f" stroke-width="3" d="M395.23,-180.14C406.39,-184.38 419.8,-189.48 431.9,-194.07"/>
<polygon fill="#d32f2f" stroke="#d32f2f" stroke-width="3" points="430.66,-197.35 441.26,-197.63 433.15,-190.81 430.66,-197.35"/>
<text text-anchor="middle" x="418.2" y="-193.07" font-family="Arial" font-size="11.00">2</text>
</g>
<!-- serfc -->
<g id="node13" class="node">
<title>serfc</title>
<ellipse fill="#1b5e20" stroke="#081c15" stroke-width="2" cx="466.57" cy="-134.87" rx="26.74" ry="26.74"/>
<text text-anchor="middle" x="466.57" y="-138.67" font-family="Arial" font-size="14.00" fill="#ffffff">c</text>
<text text-anchor="middle" x="466.57" y="-123.67" font-family="Arial" font-size="14.00" fill="#ffffff">16</text>
</g>
<!-- serf&#45;&gt;serfc -->
<g id="edge13" class="edge">
<title>serf&#45;&gt;serfc</title>
<path fill="none" stroke="#1a1a1a" stroke-width="2" d="M395.23,-161.6C406.39,-157.36 419.8,-152.26 431.9,-147.67"/>
<polygon fill="#1a1a1a" stroke="#1a1a1a" stroke-width="2" points="433.15,-150.93 441.26,-144.11 430.66,-144.39 433.15,-150.93"/>
<text text-anchor="middle" x="418.2" y="-157.07" font-family="Arial" font-size="11.00">3</text>
</g>
<!-- sehp -->
<g id="node15" class="node">
<title>sehp</title>
<ellipse fill="#000000" stroke="#000000" stroke-width="2" cx="369.83" cy="-98.87" rx="26.74" ry="26.74"/>
<text text-anchor="middle" x="369.83" y="-102.67" font-family="Arial" font-size="14.00" fill="#ffffff">p</text>
<text text-anchor="middle" x="369.83" y="-87.67" font-family="Arial" font-size="14.00" fill="#ffffff">21</text>
</g>
<!-- seh&#45;&gt;sehp -->
<g id="edge14" class="edge">
<title>seh&#45;&gt;sehp</title>
<path fill="none" stroke="#1a1a1a" stroke-width="2" d="M294.03,-98.87C305.69,-98.87 319.66,-98.87 332.35,-98.87"/>
<polygon fill="#1a1a1a" stroke="#1a1a1a" stroke-width="2" points="332.63,-102.37 342.63,-98.87 332.63,-95.37 332.63,-102.37"/>
<text text-anchor="middle" x="318.46" y="-102.07" font-family="Arial" font-size="11.00">4</text>
</g>
<!-- sehq -->
<g id="node16" class="node">
<title>sehq</title>
<ellipse fill="#000000" stroke="#000000" stroke-width="2" cx="369.83" cy="-26.87" rx="26.74" ry="26.74"/>
<text text-anchor="middle" x="369.83" y="-30.67" font-family="Arial" font-size="14.00" fill="#ffffff">q</text>
<text text-anchor="middle" x="369.83" y="-15.67" font-family="Arial" font-size="14.00" fill="#ffffff">21</text>
</g>
<!-- seh&#45;&gt;sehq -->
<g id="edge15" class="edge">
<title>seh&#45;&gt;sehq</title>
<path fill="none" stroke="#1a1a1a" stroke-width="2" d="M289.45,-83.6C303.88,-73.29 323.12,-59.54 339.04,-48.16"/>
<polygon fill="#1a1a1a" stroke="#1a1a1a" stroke-width="2" points="341.4,-50.78 347.5,-42.12 337.33,-45.08 341.4,-50.78"/>
<text text-anchor="middle" x="318.46" y="-70.07" font-family="Arial" font-size="11.00">4</text>
</g>
</g>
</svg>
