<?xml version="1.0" encoding="UTF-8" standalone="no"?>
<!DOCTYPE svg PUBLIC "-//W3C//DTD SVG 1.1//EN"
 "http://www.w3.org/Graphics/SVG/1.1/DTD/svg11.dtd">
<!-- Generated by graphviz version 2.43.0 (0)
 -->
<!-- Title: CostSensitiveGraph Pages: 1 -->
<svg width="493pt" height="264pt"
 viewBox="0.00 0.00 493.39 264.43" xmlns="http://www.w3.org/2000/svg" xmlns:xlink="http://www.w3.org/1999/xlink">
<g id="graph0" class="graph" transform="scale(1 1) rotate(0) translate(4 260.43)">
<title>CostSensitiveGraph</title>
<polygon fill="white" stroke="transparent" points="-4,4 -4,-260.43 489.39,-260.43 489.39,4 -4,4"/>
<!-- s -->
<g id="node1" class="node">
<title>s</title>
<ellipse fill="#e8f2ea" stroke="#2d6a4f" stroke-width="3" cx="21.21" cy="-107.21" rx="21.43" ry="21.43"/>
<text text-anchor="middle" x="21.21" y="-102.21" font-family="Arial" font-size="20.00" fill="#004b23">s</text>
</g>
<!-- d -->
<g id="node6" class="node">
<title>d</title>
<ellipse fill="#ffffff" stroke="#2d6a4f" stroke-width="2" cx="280.49" cy="-192.21" rx="21.43" ry="21.43"/>
<text text-anchor="middle" x="280.49" y="-187.21" font-family="Arial" font-size="20.00" fill="#004b23">d</text>
</g>
<!-- s&#45;&gt;d -->
<g id="edge1" class="edge">
<title>s&#45;&gt;d</title>
<path fill="none" stroke="#1a1a1a" stroke-width="2" d="M40.36,-116.84C53.01,-123.26 70.42,-131.54 86.43,-137.21 142.47,-157.1 209.57,-174.91 248.1,-184.58"/>
<polygon fill="#1a1a1a" stroke="#1a1a1a" stroke-width="2" points="247.12,-188.66 259.78,-187.48 249.14,-180.51 247.12,-188.66"/>
<text text-anchor="middle" x="150.85" y="-162.01" font-family="Arial" font-size="14.00" fill="#000000">3</text>
</g>
<!-- e -->
<g id="node7" class="node">
<title>e</title>
<ellipse fill="#ffffff" stroke="#2d6a4f" stroke-width="2" cx="107.64" cy="-107.21" rx="21.43" ry="21.43"/>
<text text-anchor="middle" x="107.64" y="-102.21" font-family="Arial" font-size="20.00" fill="#004b23">e</text>
</g>
<!-- s&#45;&gt;e -->
<g id="edge2" class="edge">
<title>s&#45;&gt;e</title>
<path fill="none" stroke="#1a1a1a" stroke-width="2" d="M42.65,-107.21C52.09,-107.21 63.52,-107.21 74.1,-107.21"/>
<polygon fill="#1a1a1a" stroke="#1a1a1a" stroke-width="2" points="74.39,-111.41 86.39,-107.21 74.39,-103.01 74.39,-111.41"/>
<text text-anchor="middle" x="64.43" y="-111.01" font-family="Arial" font-size="14.00" fill="#000000">9</text>
</g>
<!-- p -->
<g id="node10" class="node">
<title>p</title>
<ellipse fill="#ffffff" stroke="#2d6a4f" stroke-width="2" cx="280.49" cy="-21.21" rx="21.43" ry="21.43"/>
<text text-anchor="middle" x="280.49" y="-16.21" font-family="Arial" font-size="20.00" fill="#004b23">p</text>
</g>
<!-- s&#45;&gt;p -->
<g id="edge3" class="edge">
<title>s&#45;&gt;p</title>
<path fill="none" stroke="#1a1a1a" stroke-width="2" d="M40.64,-98.29C53.42,-92.18 70.86,-84 86.43,-77.21 124.42,-60.66 133.14,-54.05 172.85,-42.21 197.38,-34.91 225.85,-29.45 247.2,-25.93"/>
<polygon fill="#1a1a1a" stroke="#1a1a1a" stroke-width="2" points="247.97,-30.06 259.17,-24.04 246.66,-21.76 247.97,-30.06"/>
<text text-anchor="middle" x="150.85" y="-55.01" font-family="Arial" font-size="14.00" fill="#000000">1</text>
</g>
<!-- G -->
<g id="node2" class="node">
<title>G</title>
<ellipse fill="#e8f2ea" stroke="#2d6a4f" stroke-width="3" cx="376.33" cy="-113.21" rx="22.76" ry="22.76"/>
<text text-anchor="middle" x="376.33" y="-108.21" font-family="Arial" font-size="20.00" fill="#004b23">G</text>
</g>
<!-- a -->
<g id="node3" class="node">
<title>a</title>
<ellipse fill="#ffffff" stroke="#2d6a4f" stroke-width="2" cx="464.17" cy="-205.21" rx="21.43" ry="21.43"/>
<text text-anchor="middle" x="464.17" y="-200.21" font-family="Arial" font-size="20.00" fill="#004b23">a</text>
</g>
<!-- b -->
<g id="node4" class="node">
<title>b</title>
<ellipse fill="#ffffff" stroke="#2d6a4f" stroke-width="2" cx="376.33" cy="-235.21" rx="21.43" ry="21.43"/>
<text text-anchor="middle" x="376.33" y="-230.21" font-family="Arial" font-size="20.00" fill="#004b23">b</text>
</g>
<!-- b&#45;&gt;a -->
<g id="edge4" class="edge">
<title>b&#45;&gt;a</title>
<path fill="none" stroke="#1a1a1a" stroke-width="2" d="M396.81,-228.41C407.24,-224.76 420.33,-220.19 432.12,-216.07"/>
<polygon fill="#1a1a1a" stroke="#1a1a1a" stroke-width="2" points="433.83,-219.92 443.77,-211.99 431.06,-211.99 433.83,-219.92"/>
<text text-anchor="middle" x="420.96" y="-224.01" font-family="Arial" font-size="14.00" fill="#000000">2</text>
</g>
<!-- c -->
<g id="node5" class="node">
<title>c</title>
<ellipse fill="#ffffff" stroke="#2d6a4f" stroke-width="2" cx="376.33" cy="-175.21" rx="21.43" ry="21.43"/>
<text text-anchor="middle" x="376.33" y="-170.21" font-family="Arial" font-size="20.00" fill="#004b23">c</text>
</g>
<!-- c&#45;&gt;a -->
<g id="edge5" class="edge">
<title>c&#45;&gt;a</title>
<path fill="none" stroke="#1a1a1a" stroke-width="2" d="M396.81,-182.02C407.24,-185.66 420.33,-190.24 432.12,-194.36"/>
<polygon fill="#1a1a1a" stroke="#1a1a1a" stroke-width="2" points="431.06,-198.44 443.77,-198.43 433.83,-190.51 431.06,-198.44"/>
<text text-anchor="middle" x="420.96" y="-194.01" font-family="Arial" font-size="14.00" fill="#000000">2</text>
</g>
<!-- d&#45;&gt;b -->
<g id="edge6" class="edge">
<title>d&#45;&gt;b</title>
<path fill="none" stroke="#1a1a1a" stroke-width="2" d="M300.03,-200.71C313.01,-206.66 330.64,-214.73 345.57,-221.58"/>
<polygon fill="#1a1a1a" stroke="#1a1a1a" stroke-width="2" points="344.17,-225.55 356.83,-226.74 347.67,-217.92 344.17,-225.55"/>
<text text-anchor="middle" x="327.71" y="-220.01" font-family="Arial" font-size="14.00" fill="#000000">1</text>
</g>
<!-- d&#45;&gt;c -->
<g id="edge7" class="edge">
<title>d&#45;&gt;c</title>
<path fill="none" stroke="#1a1a1a" stroke-width="2" d="M301.85,-188.52C313.99,-186.33 329.65,-183.49 343.4,-181"/>
<polygon fill="#1a1a1a" stroke="#1a1a1a" stroke-width="2" points="344.27,-185.11 355.33,-178.84 342.78,-176.84 344.27,-185.11"/>
<text text-anchor="middle" x="327.71" y="-189.01" font-family="Arial" font-size="14.00" fill="#000000">8</text>
</g>
<!-- h -->
<g id="node9" class="node">
<title>h</title>
<ellipse fill="#ffffff" stroke="#2d6a4f" stroke-width="2" cx="194.07" cy="-72.21" rx="21.43" ry="21.43"/>
<text text-anchor="middle" x="194.07" y="-67.21" font-family="Arial" font-size="20.00" fill="#004b23">h</text>
</g>
<!-- e&#45;&gt;h -->
<g id="edge8" class="edge">
<title>e&#45;&gt;h</title>
<path fill="none" stroke="#1a1a1a" stroke-width="2" d="M127.8,-99.27C138.23,-94.94 151.38,-89.49 163.14,-84.62"/>
<polygon fill="#1a1a1a" stroke="#1a1a1a" stroke-width="2" points="164.8,-88.48 174.27,-80 161.58,-80.72 164.8,-88.48"/>
<text text-anchor="middle" x="150.85" y="-94.01" font-family="Arial" font-size="14.00" fill="#000000">8</text>
</g>
<!-- r -->
<g id="node12" class="node">
<title>r</title>
<ellipse fill="#ffffff" stroke="#2d6a4f" stroke-width="2" cx="194.07" cy="-132.21" rx="21.43" ry="21.43"/>
<text text-anchor="middle" x="194.07" y="-127.21" font-family="Arial" font-size="20.00" fill="#004b23">r</text>
</g>
<!-- e&#45;&gt;r -->
<g id="edge9" class="edge">
<title>e&#45;&gt;r</title>
<path fill="none" stroke="#1a1a1a" stroke-width="2" d="M128.22,-113.01C138.24,-115.98 150.67,-119.66 161.96,-123"/>
<polygon fill="#1a1a1a" stroke="#1a1a1a" stroke-width="2" points="160.89,-127.07 173.59,-126.45 163.28,-119.01 160.89,-127.07"/>
<text text-anchor="middle" x="150.85" y="-124.01" font-family="Arial" font-size="14.00" fill="#000000">2</text>
</g>
<!-- f -->
<g id="node8" class="node">
<title>f</title>
<ellipse fill="#ffffff" stroke="#2d6a4f" stroke-width="2" cx="280.49" cy="-132.21" rx="21.43" ry="21.43"/>
<text text-anchor="middle" x="280.49" y="-127.21" font-family="Arial" font-size="20.00" fill="#004b23">f</text>
</g>
<!-- f&#45;&gt;G -->
<g id="edge11" class="edge">
<title>f&#45;&gt;G</title>
<path fill="none" stroke="#1a1a1a" stroke-width="2" d="M299.66,-122.43C305.84,-119.57 312.91,-116.78 319.71,-115.21 326.68,-113.6 334.27,-112.75 341.54,-112.36"/>
<polygon fill="#1a1a1a" stroke="#1a1a1a" stroke-width="2" points="341.78,-116.56 353.69,-112.09 341.59,-108.16 341.78,-116.56"/>
<text text-anchor="middle" x="327.71" y="-119.01" font-family="Arial" font-size="14.00" fill="#000000">2</text>
</g>
<!-- f&#45;&gt;c -->
<g id="edge10" class="edge">
<title>f&#45;&gt;c</title>
<path fill="none" stroke="#1a1a1a" stroke-width="2" d="M300.03,-140.71C313.01,-146.66 330.64,-154.73 345.57,-161.58"/>
<polygon fill="#1a1a1a" stroke="#1a1a1a" stroke-width="2" points="344.17,-165.55 356.83,-166.74 347.67,-157.92 344.17,-165.55"/>
<text text-anchor="middle" x="327.71" y="-160.01" font-family="Arial" font-size="14.00" fill="#000000">3</text>
</g>
<!-- h&#45;&gt;p -->
<g id="edge12" class="edge">
<title>h&#45;&gt;p</title>
<path fill="none" stroke="#1a1a1a" stroke-width="2" d="M212.56,-61.65C223.77,-54.88 238.56,-45.94 251.39,-38.19"/>
<polygon fill="#1a1a1a" stroke="#1a1a1a" stroke-width="2" points="253.92,-41.57 262.02,-31.77 249.58,-34.38 253.92,-41.57"/>
<text text-anchor="middle" x="237.28" y="-53.01" font-family="Arial" font-size="14.00" fill="#000000">4</text>
</g>
<!-- q -->
<g id="node11" class="node">
<title>q</title>
<ellipse fill="#ffffff" stroke="#2d6a4f" stroke-width="2" cx="376.33" cy="-51.21" rx="21.43" ry="21.43"/>
<text text-anchor="middle" x="376.33" y="-46.21" font-family="Arial" font-size="20.00" fill="#004b23">q</text>
</g>
<!-- h&#45;&gt;q -->
<g id="edge13" class="edge">
<title>h&#45;&gt;q</title>
<path fill="none" stroke="#1a1a1a" stroke-width="2" d="M215.6,-70.31C243.02,-67.7 293.09,-62.71 335.71,-57.21 338.09,-56.91 340.55,-56.57 343.02,-56.23"/>
<polygon fill="#1a1a1a" stroke="#1a1a1a" stroke-width="2" points="343.94,-60.34 355.2,-54.44 342.71,-52.03 343.94,-60.34"/>
<text text-anchor="middle" x="280.49" y="-70.01" font-family="Arial" font-size="14.00" fill="#000000">4</text>
</g>
<!-- p&#45;&gt;q -->
<g id="edge14" class="edge">
<title>p&#45;&gt;q</title>
<path fill="none" stroke="#1a1a1a" stroke-width="2" d="M300.94,-27.43C313.39,-31.41 329.84,-36.67 344.1,-41.23"/>
<polygon fill="#1a1a1a" stroke="#1a1a1a" stroke-width="2" points="343.21,-45.35 355.91,-45.01 345.76,-37.35 343.21,-45.35"/>
<text text-anchor="middle" x="327.71" y="-42.01" font-family="Arial" font-size="14.00" fill="#000000">15</text>
</g>
<!-- r&#45;&gt;f -->
<g id="edge15" class="edge">
<title>r&#45;&gt;f</title>
<path fill="none" stroke="#1a1a1a" stroke-width="2" d="M215.5,-132.21C224.94,-132.21 236.38,-132.21 246.96,-132.21"/>
<polygon fill="#1a1a1a" stroke="#1a1a1a" stroke-width="2" points="247.24,-136.41 259.24,-132.21 247.24,-128.01 247.24,-136.41"/>
<text text-anchor="middle" x="237.28" y="-136.01" font-family="Arial" font-size="14.00" fill="#000000">2</text>
</g>
</g>
</svg>
