<?xml version="1.0" encoding="UTF-8" standalone="no"?>
<!DOCTYPE svg PUBLIC "-//W3C//DTD SVG 1.1//EN"
 "http://www.w3.org/Graphics/SVG/1.1/DTD/svg11.dtd">
<!-- Generated by graphviz version 2.43.0 (0)
 -->
<!-- Title: SearchTree Pages: 1 -->
<svg width="418pt" height="449pt"
 viewBox="0.00 0.00 418.00 449.00" xmlns="http://www.w3.org/2000/svg" xmlns:xlink="http://www.w3.org/1999/xlink">
<g id="graph0" class="graph" transform="scale(1 1) rotate(0) translate(4 445)">
<title>SearchTree</title>
<polygon fill="white" stroke="transparent" points="-4,4 -4,-445 414,-445 414,4 -4,4"/>
<!-- s -->
<g id="node1" class="node">
<title>s</title>
<ellipse fill="#e8f2ea" stroke="#2d6a4f" stroke-width="3" cx="238" cy="-405" rx="36" ry="36"/>
<text text-anchor="middle" x="238" y="-400" font-family="Arial" font-size="20.00" fill="#004b23">s</text>
</g>
<!-- sa -->
<g id="node2" class="node">
<title>sa</title>
<ellipse fill="#ffffff" stroke="#2d6a4f" cx="194" cy="-282" rx="36" ry="36"/>
<text text-anchor="middle" x="194" y="-277" font-family="Arial" font-size="20.00" fill="#004b23">a</text>
</g>
<!-- s&#45;&gt;sa -->
<g id="edge1" class="edge">
<title>s&#45;&gt;sa</title>
<path fill="none" stroke="#1a1a1a" stroke-width="2" d="M225.98,-370.94C220.88,-356.93 214.89,-340.44 209.47,-325.54"/>
<polygon fill="#1a1a1a" stroke="#1a1a1a" stroke-width="2" points="212.72,-324.23 206.01,-316.02 206.14,-326.62 212.72,-324.23"/>
<text text-anchor="middle" x="232" y="-339.8" font-family="Times,serif" font-size="14.00">s→a</text>
</g>
<!-- sb -->
<g id="node3" class="node">
<title>sb</title>
<ellipse fill="#ffffff" stroke="#2d6a4f" cx="284" cy="-282" rx="36" ry="36"/>
<text text-anchor="middle" x="284" y="-277" font-family="Arial" font-size="20.00" fill="#004b23">b</text>
</g>
<!-- s&#45;&gt;sb -->
<g id="edge2" class="edge">
<title>s&#45;&gt;sb</title>
<path fill="none" stroke="#1a1a1a" stroke-width="2" d="M250.57,-370.94C255.89,-356.93 262.16,-340.44 267.83,-325.54"/>
<polygon fill="#1a1a1a" stroke="#1a1a1a" stroke-width="2" points="271.16,-326.61 271.45,-316.02 264.62,-324.13 271.16,-326.61"/>
<text text-anchor="middle" x="277.5" y="-339.8" font-family="Times,serif" font-size="14.00">s→b</text>
</g>
<!-- sab -->
<g id="node4" class="node">
<title>sab</title>
<ellipse fill="#ffffff" stroke="#2d6a4f" cx="104" cy="-159" rx="36" ry="36"/>
<text text-anchor="middle" x="104" y="-154" font-family="Arial" font-size="20.00" fill="#004b23">b</text>
</g>
<!-- sa&#45;&gt;sab -->
<g id="edge3" class="edge">
<title>sa&#45;&gt;sab</title>
<path fill="none" stroke="#1a1a1a" stroke-width="2" d="M172.9,-252.63C160.58,-236.06 144.88,-214.97 131.59,-197.09"/>
<polygon fill="#1a1a1a" stroke="#1a1a1a" stroke-width="2" points="134.06,-194.55 125.28,-188.61 128.44,-198.72 134.06,-194.55"/>
<text text-anchor="middle" x="170" y="-216.8" font-family="Times,serif" font-size="14.00">a→b</text>
</g>
<!-- saG -->
<g id="node5" class="node">
<title>saG</title>
<ellipse fill="#e8f2ea" stroke="#2d6a4f" stroke-width="3" cx="194" cy="-159" rx="36" ry="36"/>
<text text-anchor="middle" x="194" y="-154" font-family="Arial" font-size="20.00" fill="#004b23">G</text>
</g>
<!-- sa&#45;&gt;saG -->
<g id="edge4" class="edge">
<title>sa&#45;&gt;saG</title>
<path fill="none" stroke="#1a1a1a" stroke-width="2" d="M194,-245.68C194,-233.13 194,-218.82 194,-205.54"/>
<polygon fill="#1a1a1a" stroke="#1a1a1a" stroke-width="2" points="197.5,-205.16 194,-195.16 190.5,-205.16 197.5,-205.16"/>
<text text-anchor="middle" x="210" y="-216.8" font-family="Times,serif" font-size="14.00">a→G</text>
</g>
<!-- sba -->
<g id="node6" class="node">
<title>sba</title>
<ellipse fill="#ffffff" stroke="#2d6a4f" cx="284" cy="-159" rx="36" ry="36"/>
<text text-anchor="middle" x="284" y="-154" font-family="Arial" font-size="20.00" fill="#004b23">a</text>
</g>
<!-- sb&#45;&gt;sba -->
<g id="edge5" class="edge">
<title>sb&#45;&gt;sba</title>
<path fill="none" stroke="#1a1a1a" stroke-width="2" d="M284,-245.68C284,-233.13 284,-218.82 284,-205.54"/>
<polygon fill="#1a1a1a" stroke="#1a1a1a" stroke-width="2" points="287.5,-205.16 284,-195.16 280.5,-205.16 287.5,-205.16"/>
<text text-anchor="middle" x="299" y="-216.8" font-family="Times,serif" font-size="14.00">b→a</text>
</g>
<!-- sbG -->
<g id="node7" class="node">
<title>sbG</title>
<ellipse fill="#e8f2ea" stroke="#2d6a4f" stroke-width="3" cx="374" cy="-159" rx="36" ry="36"/>
<text text-anchor="middle" x="374" y="-154" font-family="Arial" font-size="20.00" fill="#004b23">G</text>
</g>
<!-- sb&#45;&gt;sbG -->
<g id="edge6" class="edge">
<title>sb&#45;&gt;sbG</title>
<path fill="none" stroke="#1a1a1a" stroke-width="2" d="M305.1,-252.63C317.42,-236.06 333.12,-214.97 346.41,-197.09"/>
<polygon fill="#1a1a1a" stroke="#1a1a1a" stroke-width="2" points="349.56,-198.72 352.72,-188.61 343.94,-194.55 349.56,-198.72"/>
<text text-anchor="middle" x="350.5" y="-216.8" font-family="Times,serif" font-size="14.00">b→G</text>
</g>
<!-- saba -->
<g id="node8" class="node">
<title>saba</title>
<ellipse fill="#ffffff" stroke="#2d6a4f" cx="36" cy="-36" rx="36" ry="36"/>
<text text-anchor="middle" x="36" y="-31" font-family="Arial" font-size="20.00" fill="#004b23">a</text>
</g>
<!-- sab&#45;&gt;saba -->
<g id="edge7" class="edge">
<title>sab&#45;&gt;saba</title>
<path fill="none" stroke="#1a1a1a" stroke-width="2" d="M86.66,-127.15C78.03,-111.79 67.5,-93.05 58.27,-76.63"/>
<polygon fill="#1a1a1a" stroke="#1a1a1a" stroke-width="2" points="61.25,-74.79 53.3,-67.79 55.15,-78.22 61.25,-74.79"/>
<text text-anchor="middle" x="90" y="-93.8" font-family="Times,serif" font-size="14.00">b→a</text>
</g>
<!-- sabG -->
<g id="node9" class="node">
<title>sabG</title>
<ellipse fill="#e8f2ea" stroke="#2d6a4f" stroke-width="3" cx="126" cy="-36" rx="36" ry="36"/>
<text text-anchor="middle" x="126" y="-31" font-family="Arial" font-size="20.00" fill="#004b23">G</text>
</g>
<!-- sab&#45;&gt;sabG -->
<g id="edge8" class="edge">
<title>sab&#45;&gt;sabG</title>
<path fill="none" stroke="#1a1a1a" stroke-width="2" d="M110.3,-123.33C112.65,-110.42 115.35,-95.57 117.84,-81.88"/>
<polygon fill="#1a1a1a" stroke="#1a1a1a" stroke-width="2" points="121.35,-82.14 119.69,-71.68 114.46,-80.89 121.35,-82.14"/>
<text text-anchor="middle" x="133.5" y="-93.8" font-family="Times,serif" font-size="14.00">b→G</text>
</g>
<!-- sbaa -->
<g id="node10" class="node">
<title>sbaa</title>
<ellipse fill="#ffffff" stroke="#2d6a4f" cx="261" cy="-36" rx="36" ry="36"/>
<text text-anchor="middle" x="261" y="-31" font-family="Arial" font-size="20.00" fill="#004b23">a</text>
</g>
<!-- sba&#45;&gt;sbaa -->
<g id="edge9" class="edge">
<title>sba&#45;&gt;sbaa</title>
<path fill="none" stroke="#1a1a1a" stroke-width="2" d="M277.41,-123.33C274.96,-110.42 272.13,-95.57 269.53,-81.88"/>
<polygon fill="#1a1a1a" stroke="#1a1a1a" stroke-width="2" points="272.9,-80.85 267.59,-71.68 266.02,-82.16 272.9,-80.85"/>
<text text-anchor="middle" x="288" y="-93.8" font-family="Times,serif" font-size="14.00">a→b</text>
</g>
<!-- sbaG -->
<g id="node11" class="node">
<title>sbaG</title>
<ellipse fill="#e8f2ea" stroke="#2d6a4f" stroke-width="3" cx="351" cy="-36" rx="36" ry="36"/>
<text text-anchor="middle" x="351" y="-31" font-family="Arial" font-size="20.00" fill="#004b23">G</text>
</g>
<!-- sba&#45;&gt;sbaG -->
<g id="edge10" class="edge">
<title>sba&#45;&gt;sbaG</title>
<path fill="none" stroke="#1a1a1a" stroke-width="2" d="M301.08,-127.15C309.59,-111.79 319.97,-93.05 329.06,-76.63"/>
<polygon fill="#1a1a1a" stroke="#1a1a1a" stroke-width="2" points="332.17,-78.23 333.95,-67.79 326.04,-74.84 332.17,-78.23"/>
<text text-anchor="middle" x="337" y="-93.8" font-family="Times,serif" font-size="14.00">a→G</text>
</g>
</g>
</svg>
