<?xml version="1.0" encoding="UTF-8" standalone="no"?>
<!DOCTYPE svg PUBLIC "-//W3C//DTD SVG 1.1//EN"
 "http://www.w3.org/Graphics/SVG/1.1/DTD/svg11.dtd">
<!-- Generated by graphviz version 2.43.0 (0)
 -->
<!-- Title: FourStateGraph Pages: 1 -->
<svg width="460pt" height="130pt"
 viewBox="0.00 0.00 460.00 130.00" xmlns="http://www.w3.org/2000/svg" xmlns:xlink="http://www.w3.org/1999/xlink">
<g id="graph0" class="graph" transform="scale(1 1) rotate(0) translate(4 126)">
<title>FourStateGraph</title>
<polygon fill="white" stroke="transparent" points="-4,4 -4,-126 456,-126 456,4 -4,4"/>
<!-- s -->
<g id="node1" class="node">
<title>s</title>
<ellipse fill="#e8f2ea" stroke="#2d6a4f" stroke-width="3" cx="43" cy="-78" rx="43" ry="43"/>
<text text-anchor="middle" x="43" y="-71.8" font-family="Arial" font-size="24.00" fill="#004b23">s</text>
</g>
<!-- a -->
<g id="node2" class="node">
<title>a</title>
<ellipse fill="#ffffff" stroke="#2d6a4f" cx="165" cy="-43" rx="43" ry="43"/>
<text text-anchor="middle" x="165" y="-36.8" font-family="Arial" font-size="24.00" fill="#004b23">a</text>
</g>
<!-- s&#45;&gt;a -->
<g id="edge1" class="edge">
<title>s&#45;&gt;a</title>
<path fill="none" stroke="#1a1a1a" stroke-width="2" d="M84.63,-66.15C93.33,-63.61 102.63,-60.9 111.7,-58.25"/>
<polygon fill="#1a1a1a" stroke="#1a1a1a" stroke-width="2" points="113.07,-62.23 123.42,-54.84 110.72,-54.17 113.07,-62.23"/>
</g>
<!-- b -->
<g id="node3" class="node">
<title>b</title>
<ellipse fill="#ffffff" stroke="#2d6a4f" cx="287" cy="-79" rx="43" ry="43"/>
<text text-anchor="middle" x="287" y="-72.8" font-family="Arial" font-size="24.00" fill="#004b23">b</text>
</g>
<!-- s&#45;&gt;b -->
<g id="edge2" class="edge">
<title>s&#45;&gt;b</title>
<path fill="none" stroke="#1a1a1a" stroke-width="2" d="M85.02,-88.67C96.87,-91.28 109.87,-93.69 122,-95 160,-99.09 169.97,-98.86 208,-95 216.13,-94.17 224.67,-92.88 232.99,-91.37"/>
<polygon fill="#1a1a1a" stroke="#1a1a1a" stroke-width="2" points="233.97,-95.46 244.95,-89.04 232.37,-87.21 233.97,-95.46"/>
</g>
<!-- a&#45;&gt;b -->
<g id="edge3" class="edge">
<title>a&#45;&gt;b</title>
<path fill="none" stroke="#1a1a1a" stroke-width="2" d="M207.63,-49.03C216.77,-51.47 226.54,-54.34 235.97,-57.32"/>
<polygon fill="#1a1a1a" stroke="#1a1a1a" stroke-width="2" points="234.95,-61.41 247.66,-61.16 237.56,-53.43 234.95,-61.41"/>
</g>
<!-- G -->
<g id="node4" class="node">
<title>G</title>
<ellipse fill="#e8f2ea" stroke="#2d6a4f" stroke-width="3" cx="409" cy="-43" rx="43" ry="43"/>
<text text-anchor="middle" x="409" y="-36.8" font-family="Arial" font-size="24.00" fill="#004b23">G</text>
</g>
<!-- a&#45;&gt;G -->
<g id="edge6" class="edge">
<title>a&#45;&gt;G</title>
<path fill="none" stroke="#1a1a1a" stroke-width="2" d="M207.05,-32.96C218.9,-30.5 231.9,-28.23 244,-27 282.03,-23.14 291.97,-23.14 330,-27 338.13,-27.83 346.67,-29.12 354.99,-30.63"/>
<polygon fill="#1a1a1a" stroke="#1a1a1a" stroke-width="2" points="354.37,-34.79 366.95,-32.96 355.97,-26.54 354.37,-34.79"/>
</g>
<!-- b&#45;&gt;a -->
<g id="edge4" class="edge">
<title>b&#45;&gt;a</title>
<path fill="none" stroke="#1a1a1a" stroke-width="2" d="M244.33,-72.96C235.19,-70.51 225.42,-67.65 215.99,-64.66"/>
<polygon fill="#1a1a1a" stroke="#1a1a1a" stroke-width="2" points="217.01,-60.58 204.3,-60.83 214.39,-68.56 217.01,-60.58"/>
</g>
<!-- b&#45;&gt;G -->
<g id="edge5" class="edge">
<title>b&#45;&gt;G</title>
<path fill="none" stroke="#1a1a1a" stroke-width="2" d="M328.29,-66.91C337.2,-64.24 346.75,-61.37 356.05,-58.59"/>
<polygon fill="#1a1a1a" stroke="#1a1a1a" stroke-width="2" points="357.32,-62.59 367.61,-55.12 354.91,-54.54 357.32,-62.59"/>
</g>
</g>
</svg>
