<?xml version="1.0" encoding="UTF-8" standalone="no"?>
<!DOCTYPE svg PUBLIC "-//W3C//DTD SVG 1.1//EN"
 "http://www.w3.org/Graphics/SVG/1.1/DTD/svg11.dtd">
<!-- Generated by graphviz version 2.43.0 (0)
 -->
<!-- Title: TreeSearchExample Pages: 1 -->
<svg width="294pt" height="536pt"
 viewBox="0.00 0.00 294.00 536.00" xmlns="http://www.w3.org/2000/svg" xmlns:xlink="http://www.w3.org/1999/xlink">
<g id="graph0" class="graph" transform="scale(1 1) rotate(0) translate(4 532)">
<title>TreeSearchExample</title>
<polygon fill="white" stroke="transparent" points="-4,4 -4,-532 290,-532 290,4 -4,4"/>
<!-- s -->
<g id="node1" class="node">
<title>s</title>
<ellipse fill="#e8f2ea" stroke="#2d6a4f" stroke-width="3" cx="181" cy="-499" rx="29" ry="29"/>
<text text-anchor="middle" x="181" y="-494.6" font-family="Arial" font-size="18.00" fill="#004b23">s</text>
</g>
<!-- sd -->
<g id="node2" class="node">
<title>sd</title>
<ellipse fill="#ffffff" stroke="#2d6a4f" cx="105" cy="-405" rx="29" ry="29"/>
<text text-anchor="middle" x="105" y="-400.6" font-family="Arial" font-size="18.00" fill="#004b23">d</text>
</g>
<!-- s&#45;&gt;sd -->
<g id="edge1" class="edge">
<title>s&#45;&gt;sd</title>
<path fill="none" stroke="#ff0000" stroke-width="3" d="M162.99,-476.2C153.03,-464.14 140.51,-448.98 129.65,-435.84"/>
<polygon fill="#ff0000" stroke="#ff0000" stroke-width="3" points="132.21,-433.45 123.15,-427.97 126.82,-437.9 132.21,-433.45"/>
</g>
<!-- se -->
<g id="node3" class="node">
<title>se</title>
<ellipse fill="#ffffff" stroke="#2d6a4f" cx="181" cy="-405" rx="29" ry="29"/>
<text text-anchor="middle" x="181" y="-400.6" font-family="Arial" font-size="18.00" fill="#004b23">e</text>
</g>
<!-- s&#45;&gt;se -->
<g id="edge2" class="edge">
<title>s&#45;&gt;se</title>
<path fill="none" stroke="#1a1a1a" stroke-width="2" d="M181,-469.9C181,-461.86 181,-452.95 181,-444.41"/>
<polygon fill="#1a1a1a" stroke="#1a1a1a" stroke-width="2" points="184.5,-444.25 181,-434.25 177.5,-444.25 184.5,-444.25"/>
</g>
<!-- sp -->
<g id="node4" class="node">
<title>sp</title>
<ellipse fill="#ffffff" stroke="#2d6a4f" cx="257" cy="-405" rx="29" ry="29"/>
<text text-anchor="middle" x="257" y="-400.6" font-family="Arial" font-size="18.00" fill="#004b23">p</text>
</g>
<!-- s&#45;&gt;sp -->
<g id="edge3" class="edge">
<title>s&#45;&gt;sp</title>
<path fill="none" stroke="#1a1a1a" stroke-width="2" d="M199.01,-476.2C208.97,-464.14 221.49,-448.98 232.35,-435.84"/>
<polygon fill="#1a1a1a" stroke="#1a1a1a" stroke-width="2" points="235.18,-437.9 238.85,-427.97 229.79,-433.45 235.18,-437.9"/>
</g>
<!-- sdb -->
<g id="node5" class="node">
<title>sdb</title>
<ellipse fill="#ffffff" stroke="#2d6a4f" cx="29" cy="-311" rx="29" ry="29"/>
<text text-anchor="middle" x="29" y="-306.6" font-family="Arial" font-size="18.00" fill="#004b23">b</text>
</g>
<!-- sd&#45;&gt;sdb -->
<g id="edge4" class="edge">
<title>sd&#45;&gt;sdb</title>
<path fill="none" stroke="#1a1a1a" stroke-width="2" d="M86.99,-382.2C77.03,-370.14 64.51,-354.98 53.65,-341.84"/>
<polygon fill="#1a1a1a" stroke="#1a1a1a" stroke-width="2" points="56.21,-339.45 47.15,-333.97 50.82,-343.9 56.21,-339.45"/>
</g>
<!-- sdc -->
<g id="node6" class="node">
<title>sdc</title>
<ellipse fill="#ffffff" stroke="#2d6a4f" cx="105" cy="-311" rx="29" ry="29"/>
<text text-anchor="middle" x="105" y="-306.6" font-family="Arial" font-size="18.00" fill="#004b23">c</text>
</g>
<!-- sd&#45;&gt;sdc -->
<g id="edge5" class="edge">
<title>sd&#45;&gt;sdc</title>
<path fill="none" stroke="#1a1a1a" stroke-width="2" d="M105,-375.9C105,-367.86 105,-358.95 105,-350.41"/>
<polygon fill="#1a1a1a" stroke="#1a1a1a" stroke-width="2" points="108.5,-350.25 105,-340.25 101.5,-350.25 108.5,-350.25"/>
</g>
<!-- sde -->
<g id="node7" class="node">
<title>sde</title>
<ellipse fill="#ffffff" stroke="#2d6a4f" cx="181" cy="-311" rx="29" ry="29"/>
<text text-anchor="middle" x="181" y="-306.6" font-family="Arial" font-size="18.00" fill="#004b23">e</text>
</g>
<!-- sd&#45;&gt;sde -->
<g id="edge6" class="edge">
<title>sd&#45;&gt;sde</title>
<path fill="none" stroke="#ff0000" stroke-width="3" d="M123.01,-382.2C132.97,-370.14 145.49,-354.98 156.35,-341.84"/>
<polygon fill="#ff0000" stroke="#ff0000" stroke-width="3" points="159.18,-343.9 162.85,-333.97 153.79,-339.45 159.18,-343.9"/>
</g>
<!-- sdeh -->
<g id="node8" class="node">
<title>sdeh</title>
<ellipse fill="#ffffff" stroke="#2d6a4f" cx="143" cy="-217" rx="29" ry="29"/>
<text text-anchor="middle" x="143" y="-212.6" font-family="Arial" font-size="18.00" fill="#004b23">h</text>
</g>
<!-- sde&#45;&gt;sdeh -->
<g id="edge7" class="edge">
<title>sde&#45;&gt;sdeh</title>
<path fill="none" stroke="#1a1a1a" stroke-width="2" d="M170.21,-283.88C166.32,-274.46 161.86,-263.66 157.69,-253.57"/>
<polygon fill="#1a1a1a" stroke="#1a1a1a" stroke-width="2" points="160.87,-252.09 153.81,-244.18 154.4,-254.76 160.87,-252.09"/>
</g>
<!-- sder -->
<g id="node9" class="node">
<title>sder</title>
<ellipse fill="#ffffff" stroke="#2d6a4f" cx="219" cy="-217" rx="29" ry="29"/>
<text text-anchor="middle" x="219" y="-212.6" font-family="Arial" font-size="18.00" fill="#004b23">r</text>
</g>
<!-- sde&#45;&gt;sder -->
<g id="edge8" class="edge">
<title>sde&#45;&gt;sder</title>
<path fill="none" stroke="#ff0000" stroke-width="3" d="M191.79,-283.88C195.68,-274.46 200.14,-263.66 204.31,-253.57"/>
<polygon fill="#ff0000" stroke="#ff0000" stroke-width="3" points="207.6,-254.76 208.19,-244.18 201.13,-252.09 207.6,-254.76"/>
</g>
<!-- sderf -->
<g id="node10" class="node">
<title>sderf</title>
<ellipse fill="#ffffff" stroke="#2d6a4f" cx="219" cy="-123" rx="29" ry="29"/>
<text text-anchor="middle" x="219" y="-118.6" font-family="Arial" font-size="18.00" fill="#004b23">f</text>
</g>
<!-- sder&#45;&gt;sderf -->
<g id="edge9" class="edge">
<title>sder&#45;&gt;sderf</title>
<path fill="none" stroke="#ff0000" stroke-width="3" d="M219,-187.9C219,-179.86 219,-170.95 219,-162.41"/>
<polygon fill="#ff0000" stroke="#ff0000" stroke-width="3" points="222.5,-162.25 219,-152.25 215.5,-162.25 222.5,-162.25"/>
</g>
<!-- sderfc -->
<g id="node11" class="node">
<title>sderfc</title>
<ellipse fill="#ffffff" stroke="#2d6a4f" cx="181" cy="-29" rx="29" ry="29"/>
<text text-anchor="middle" x="181" y="-24.6" font-family="Arial" font-size="18.00" fill="#004b23">c</text>
</g>
<!-- sderf&#45;&gt;sderfc -->
<g id="edge10" class="edge">
<title>sderf&#45;&gt;sderfc</title>
<path fill="none" stroke="#1a1a1a" stroke-width="2" d="M208.21,-95.88C204.32,-86.46 199.86,-75.66 195.69,-65.57"/>
<polygon fill="#1a1a1a" stroke="#1a1a1a" stroke-width="2" points="198.87,-64.09 191.81,-56.18 192.4,-66.76 198.87,-64.09"/>
</g>
<!-- sderfG -->
<g id="node12" class="node">
<title>sderfG</title>
<ellipse fill="#e8f2ea" stroke="#2d6a4f" stroke-width="3" cx="257" cy="-29" rx="29" ry="29"/>
<text text-anchor="middle" x="257" y="-24.6" font-family="Arial" font-size="18.00" fill="#004b23">G</text>
</g>
<!-- sderf&#45;&gt;sderfG -->
<g id="edge11" class="edge">
<title>sderf&#45;&gt;sderfG</title>
<path fill="none" stroke="#ff0000" stroke-width="3" d="M229.79,-95.88C233.68,-86.46 238.14,-75.66 242.31,-65.57"/>
<polygon fill="#ff0000" stroke="#ff0000" stroke-width="3" points="245.6,-66.76 246.19,-56.18 239.13,-64.09 245.6,-66.76"/>
</g>
</g>
</svg>
